<mxfile host="app.diagrams.net" modified="2023-11-08T20:49:17.995Z" agent="Mozilla/5.0 (Windows NT 10.0; Win64; x64) AppleWebKit/537.36 (KHTML, like Gecko) Chrome/119.0.0.0 Safari/537.36" etag="ENLthQph_3NRX0HQYNcd" version="22.0.8" type="device">
  <diagram name="Page-1" id="qK95FanE-dGZkrNRj5DC">
    <mxGraphModel dx="1235" dy="628" grid="0" gridSize="10" guides="0" tooltips="1" connect="1" arrows="1" fold="1" page="1" pageScale="1" pageWidth="850" pageHeight="1100" math="0" shadow="0">
      <root>
        <mxCell id="0" />
        <mxCell id="1" parent="0" />
        <mxCell id="Vku0aUDiR4ywxNYIYDKn-1" value="Factories" style="swimlane;fontStyle=0;childLayout=stackLayout;horizontal=1;startSize=26;fillColor=none;horizontalStack=0;resizeParent=1;resizeParentMax=0;resizeLast=0;collapsible=1;marginBottom=0;whiteSpace=wrap;html=1;" parent="1" vertex="1">
          <mxGeometry x="46" y="323" width="220" height="130" as="geometry" />
        </mxCell>
        <mxCell id="Vku0aUDiR4ywxNYIYDKn-2" value="PK factory_id: UUID" style="text;strokeColor=none;fillColor=none;align=left;verticalAlign=top;spacingLeft=4;spacingRight=4;overflow=hidden;rotatable=0;points=[[0,0.5],[1,0.5]];portConstraint=eastwest;whiteSpace=wrap;html=1;" parent="Vku0aUDiR4ywxNYIYDKn-1" vertex="1">
          <mxGeometry y="26" width="220" height="26" as="geometry" />
        </mxCell>
        <mxCell id="Vku0aUDiR4ywxNYIYDKn-17" value="&amp;nbsp; &amp;nbsp; &amp;nbsp; product_line_names: SET&amp;lt;TEXT&amp;gt;" style="text;strokeColor=none;fillColor=none;align=left;verticalAlign=top;spacingLeft=4;spacingRight=4;overflow=hidden;rotatable=0;points=[[0,0.5],[1,0.5]];portConstraint=eastwest;whiteSpace=wrap;html=1;" parent="Vku0aUDiR4ywxNYIYDKn-1" vertex="1">
          <mxGeometry y="52" width="220" height="26" as="geometry" />
        </mxCell>
        <mxCell id="Vku0aUDiR4ywxNYIYDKn-5" value="&amp;nbsp; &amp;nbsp; &amp;nbsp; name: TEXT" style="text;strokeColor=none;fillColor=none;align=left;verticalAlign=top;spacingLeft=4;spacingRight=4;overflow=hidden;rotatable=0;points=[[0,0.5],[1,0.5]];portConstraint=eastwest;whiteSpace=wrap;html=1;" parent="Vku0aUDiR4ywxNYIYDKn-1" vertex="1">
          <mxGeometry y="78" width="220" height="26" as="geometry" />
        </mxCell>
        <mxCell id="Vku0aUDiR4ywxNYIYDKn-3" value="&amp;nbsp; &amp;nbsp; &amp;nbsp; capacity: INT" style="text;strokeColor=none;fillColor=none;align=left;verticalAlign=top;spacingLeft=4;spacingRight=4;overflow=hidden;rotatable=0;points=[[0,0.5],[1,0.5]];portConstraint=eastwest;whiteSpace=wrap;html=1;" parent="Vku0aUDiR4ywxNYIYDKn-1" vertex="1">
          <mxGeometry y="104" width="220" height="26" as="geometry" />
        </mxCell>
        <mxCell id="Vku0aUDiR4ywxNYIYDKn-7" value="Product_Lines" style="swimlane;fontStyle=0;childLayout=stackLayout;horizontal=1;startSize=26;fillColor=none;horizontalStack=0;resizeParent=1;resizeParentMax=0;resizeLast=0;collapsible=1;marginBottom=0;whiteSpace=wrap;html=1;" parent="1" vertex="1">
          <mxGeometry x="356" y="323" width="210" height="104" as="geometry" />
        </mxCell>
        <mxCell id="Vku0aUDiR4ywxNYIYDKn-8" value="PK product_line_id: UUID" style="text;strokeColor=none;fillColor=none;align=left;verticalAlign=top;spacingLeft=4;spacingRight=4;overflow=hidden;rotatable=0;points=[[0,0.5],[1,0.5]];portConstraint=eastwest;whiteSpace=wrap;html=1;" parent="Vku0aUDiR4ywxNYIYDKn-7" vertex="1">
          <mxGeometry y="26" width="210" height="26" as="geometry" />
        </mxCell>
        <mxCell id="Vku0aUDiR4ywxNYIYDKn-19" value="&amp;nbsp; &amp;nbsp; &amp;nbsp; product_names: SET&amp;lt;TEXT&amp;gt;" style="text;strokeColor=none;fillColor=none;align=left;verticalAlign=top;spacingLeft=4;spacingRight=4;overflow=hidden;rotatable=0;points=[[0,0.5],[1,0.5]];portConstraint=eastwest;whiteSpace=wrap;html=1;" parent="Vku0aUDiR4ywxNYIYDKn-7" vertex="1">
          <mxGeometry y="52" width="210" height="26" as="geometry" />
        </mxCell>
        <mxCell id="Vku0aUDiR4ywxNYIYDKn-10" value="&amp;nbsp; &amp;nbsp; &amp;nbsp; name: TEXT" style="text;strokeColor=none;fillColor=none;align=left;verticalAlign=top;spacingLeft=4;spacingRight=4;overflow=hidden;rotatable=0;points=[[0,0.5],[1,0.5]];portConstraint=eastwest;whiteSpace=wrap;html=1;" parent="Vku0aUDiR4ywxNYIYDKn-7" vertex="1">
          <mxGeometry y="78" width="210" height="26" as="geometry" />
        </mxCell>
        <mxCell id="Vku0aUDiR4ywxNYIYDKn-12" value="Products" style="swimlane;fontStyle=0;childLayout=stackLayout;horizontal=1;startSize=26;fillColor=none;horizontalStack=0;resizeParent=1;resizeParentMax=0;resizeLast=0;collapsible=1;marginBottom=0;whiteSpace=wrap;html=1;" parent="1" vertex="1">
          <mxGeometry x="646" y="323" width="140" height="104" as="geometry" />
        </mxCell>
        <mxCell id="Vku0aUDiR4ywxNYIYDKn-13" value="PK product_id: UUID" style="text;strokeColor=none;fillColor=none;align=left;verticalAlign=top;spacingLeft=4;spacingRight=4;overflow=hidden;rotatable=0;points=[[0,0.5],[1,0.5]];portConstraint=eastwest;whiteSpace=wrap;html=1;" parent="Vku0aUDiR4ywxNYIYDKn-12" vertex="1">
          <mxGeometry y="26" width="140" height="26" as="geometry" />
        </mxCell>
        <mxCell id="Vku0aUDiR4ywxNYIYDKn-15" value="&amp;nbsp; &amp;nbsp; &amp;nbsp; name: TEXT" style="text;strokeColor=none;fillColor=none;align=left;verticalAlign=top;spacingLeft=4;spacingRight=4;overflow=hidden;rotatable=0;points=[[0,0.5],[1,0.5]];portConstraint=eastwest;whiteSpace=wrap;html=1;" parent="Vku0aUDiR4ywxNYIYDKn-12" vertex="1">
          <mxGeometry y="52" width="140" height="26" as="geometry" />
        </mxCell>
        <mxCell id="Vku0aUDiR4ywxNYIYDKn-16" value="&amp;nbsp; &amp;nbsp; &amp;nbsp; quantity: INT" style="text;strokeColor=none;fillColor=none;align=left;verticalAlign=top;spacingLeft=4;spacingRight=4;overflow=hidden;rotatable=0;points=[[0,0.5],[1,0.5]];portConstraint=eastwest;whiteSpace=wrap;html=1;" parent="Vku0aUDiR4ywxNYIYDKn-12" vertex="1">
          <mxGeometry y="78" width="140" height="26" as="geometry" />
        </mxCell>
        <mxCell id="paOQJdX4djnkZ6d0koQ1-1" value="Products_By_Product_Lines" style="swimlane;fontStyle=0;childLayout=stackLayout;horizontal=1;startSize=26;fillColor=none;horizontalStack=0;resizeParent=1;resizeParentMax=0;resizeLast=0;collapsible=1;marginBottom=0;whiteSpace=wrap;html=1;" vertex="1" parent="1">
          <mxGeometry x="196" y="523" width="220" height="104" as="geometry" />
        </mxCell>
        <mxCell id="paOQJdX4djnkZ6d0koQ1-2" value="PK product_line_name: TEXT" style="text;strokeColor=none;fillColor=none;align=left;verticalAlign=top;spacingLeft=4;spacingRight=4;overflow=hidden;rotatable=0;points=[[0,0.5],[1,0.5]];portConstraint=eastwest;whiteSpace=wrap;html=1;" vertex="1" parent="paOQJdX4djnkZ6d0koQ1-1">
          <mxGeometry y="26" width="220" height="26" as="geometry" />
        </mxCell>
        <mxCell id="paOQJdX4djnkZ6d0koQ1-3" value="CK product_name: TEXT" style="text;strokeColor=none;fillColor=none;align=left;verticalAlign=top;spacingLeft=4;spacingRight=4;overflow=hidden;rotatable=0;points=[[0,0.5],[1,0.5]];portConstraint=eastwest;whiteSpace=wrap;html=1;" vertex="1" parent="paOQJdX4djnkZ6d0koQ1-1">
          <mxGeometry y="52" width="220" height="26" as="geometry" />
        </mxCell>
        <mxCell id="paOQJdX4djnkZ6d0koQ1-4" value="&amp;nbsp; &amp;nbsp; &amp;nbsp; product_id: INT" style="text;strokeColor=none;fillColor=none;align=left;verticalAlign=top;spacingLeft=4;spacingRight=4;overflow=hidden;rotatable=0;points=[[0,0.5],[1,0.5]];portConstraint=eastwest;whiteSpace=wrap;html=1;" vertex="1" parent="paOQJdX4djnkZ6d0koQ1-1">
          <mxGeometry y="78" width="220" height="26" as="geometry" />
        </mxCell>
        <mxCell id="paOQJdX4djnkZ6d0koQ1-5" value="Product_Lines_By_Factory" style="swimlane;fontStyle=0;childLayout=stackLayout;horizontal=1;startSize=26;fillColor=none;horizontalStack=0;resizeParent=1;resizeParentMax=0;resizeLast=0;collapsible=1;marginBottom=0;whiteSpace=wrap;html=1;" vertex="1" parent="1">
          <mxGeometry x="526" y="523" width="220" height="104" as="geometry" />
        </mxCell>
        <mxCell id="paOQJdX4djnkZ6d0koQ1-6" value="PK factory_name: TEXT" style="text;strokeColor=none;fillColor=none;align=left;verticalAlign=top;spacingLeft=4;spacingRight=4;overflow=hidden;rotatable=0;points=[[0,0.5],[1,0.5]];portConstraint=eastwest;whiteSpace=wrap;html=1;" vertex="1" parent="paOQJdX4djnkZ6d0koQ1-5">
          <mxGeometry y="26" width="220" height="26" as="geometry" />
        </mxCell>
        <mxCell id="paOQJdX4djnkZ6d0koQ1-7" value="CK product_line_name: TEXT" style="text;strokeColor=none;fillColor=none;align=left;verticalAlign=top;spacingLeft=4;spacingRight=4;overflow=hidden;rotatable=0;points=[[0,0.5],[1,0.5]];portConstraint=eastwest;whiteSpace=wrap;html=1;" vertex="1" parent="paOQJdX4djnkZ6d0koQ1-5">
          <mxGeometry y="52" width="220" height="26" as="geometry" />
        </mxCell>
        <mxCell id="paOQJdX4djnkZ6d0koQ1-8" value="&amp;nbsp; &amp;nbsp; &amp;nbsp; product_line_id" style="text;strokeColor=none;fillColor=none;align=left;verticalAlign=top;spacingLeft=4;spacingRight=4;overflow=hidden;rotatable=0;points=[[0,0.5],[1,0.5]];portConstraint=eastwest;whiteSpace=wrap;html=1;" vertex="1" parent="paOQJdX4djnkZ6d0koQ1-5">
          <mxGeometry y="78" width="220" height="26" as="geometry" />
        </mxCell>
        <mxCell id="paOQJdX4djnkZ6d0koQ1-13" value="&lt;font style=&quot;font-size: 16px;&quot;&gt;Factories&lt;/font&gt;" style="text;html=1;strokeColor=none;fillColor=none;align=center;verticalAlign=middle;whiteSpace=wrap;rounded=0;" vertex="1" parent="1">
          <mxGeometry x="187" y="246" width="87" height="30" as="geometry" />
        </mxCell>
        <mxCell id="paOQJdX4djnkZ6d0koQ1-14" value="&lt;font style=&quot;font-size: 16px;&quot;&gt;Product_Lines&lt;/font&gt;" style="text;html=1;strokeColor=none;fillColor=none;align=center;verticalAlign=middle;whiteSpace=wrap;rounded=0;" vertex="1" parent="1">
          <mxGeometry x="379" y="246" width="120" height="30" as="geometry" />
        </mxCell>
        <mxCell id="paOQJdX4djnkZ6d0koQ1-15" value="&lt;font style=&quot;font-size: 16px;&quot;&gt;Products&lt;/font&gt;" style="text;html=1;strokeColor=none;fillColor=none;align=center;verticalAlign=middle;whiteSpace=wrap;rounded=0;" vertex="1" parent="1">
          <mxGeometry x="568" y="246" width="80" height="30" as="geometry" />
        </mxCell>
        <mxCell id="paOQJdX4djnkZ6d0koQ1-17" value="" style="edgeStyle=entityRelationEdgeStyle;fontSize=12;html=1;endArrow=ERoneToMany;rounded=0;entryX=0;entryY=0.5;entryDx=0;entryDy=0;exitX=1;exitY=0.5;exitDx=0;exitDy=0;" edge="1" parent="1" source="paOQJdX4djnkZ6d0koQ1-13" target="paOQJdX4djnkZ6d0koQ1-14">
          <mxGeometry width="100" height="100" relative="1" as="geometry">
            <mxPoint x="312" y="296" as="sourcePoint" />
            <mxPoint x="370" y="200" as="targetPoint" />
          </mxGeometry>
        </mxCell>
        <mxCell id="paOQJdX4djnkZ6d0koQ1-18" value="" style="edgeStyle=entityRelationEdgeStyle;fontSize=12;html=1;endArrow=ERoneToMany;rounded=0;exitX=1;exitY=0.5;exitDx=0;exitDy=0;entryX=0;entryY=0.5;entryDx=0;entryDy=0;" edge="1" parent="1" source="paOQJdX4djnkZ6d0koQ1-14" target="paOQJdX4djnkZ6d0koQ1-15">
          <mxGeometry width="100" height="100" relative="1" as="geometry">
            <mxPoint x="526" y="311" as="sourcePoint" />
            <mxPoint x="631" y="311" as="targetPoint" />
          </mxGeometry>
        </mxCell>
        <mxCell id="paOQJdX4djnkZ6d0koQ1-19" value="&lt;h1&gt;FACTORY_DB&lt;/h1&gt;" style="text;html=1;strokeColor=none;fillColor=none;spacing=5;spacingTop=-20;whiteSpace=wrap;overflow=hidden;rounded=0;" vertex="1" parent="1">
          <mxGeometry x="345" y="102" width="190" height="120" as="geometry" />
        </mxCell>
        <mxCell id="paOQJdX4djnkZ6d0koQ1-20" value="PK - partition key&lt;br&gt;CK - clustering key" style="text;html=1;strokeColor=none;fillColor=none;align=center;verticalAlign=middle;whiteSpace=wrap;rounded=0;" vertex="1" parent="1">
          <mxGeometry x="13" y="684" width="154" height="51" as="geometry" />
        </mxCell>
      </root>
    </mxGraphModel>
  </diagram>
</mxfile>
